<?xml version="1.0" encoding="UTF-8"?>
<!-- Generator: visioncortex VTracer 0.6.3 -->
<svg version="1.1" xmlns="http://www.w3.org/2000/svg" width="1280" height="381">
<path d="M0 0 C422.4 0 844.8 0 1280 0 C1280 125.73 1280 251.46 1280 381 C857.6 381 435.2 381 0 381 C0 255.27 0 129.54 0 0 Z " fill="#FDFDFD" transform="translate(0,0)"/>
<path d="M0 0 C0.94 0.49 1.87 0.99 2.84 1.5 C3.88 2.04 4.92 2.59 6 3.15 C10.8 5.79 15.54 8.51 20.25 11.31 C22.35 12.54 24.46 13.78 26.56 15.02 C27.64 15.65 28.71 16.28 29.82 16.94 C35.31 20.15 40.81 23.32 46.31 26.5 C47.4 27.12 48.49 27.75 49.62 28.4 C57.16 32.75 64.73 37.07 72.29 41.38 C79.95 45.76 87.57 50.21 95.18 54.66 C101.64 58.43 108.12 62.17 114.63 65.87 C116.33 66.85 118.03 67.82 119.73 68.8 C123.63 71.03 127.56 73.23 131.49 75.41 C133.64 76.63 135.79 77.84 137.94 79.06 C138.93 79.6 139.93 80.15 140.96 80.71 C149.01 85.3 156.07 90.83 159.13 99.87 C159.38 102.61 159.38 102.61 159.39 105.63 C159.41 107.36 159.41 107.36 159.42 109.12 C159.42 110.37 159.42 111.63 159.42 112.92 C159.42 114.26 159.43 115.6 159.44 116.94 C159.45 120.58 159.46 124.21 159.46 127.84 C159.46 130.12 159.47 132.39 159.47 134.66 C159.49 142.59 159.5 150.52 159.5 158.45 C159.49 165.84 159.52 173.22 159.55 180.61 C159.57 186.96 159.58 193.3 159.58 199.65 C159.58 203.44 159.59 207.23 159.61 211.02 C159.63 214.58 159.63 218.14 159.61 221.71 C159.61 223.63 159.63 225.56 159.65 227.49 C159.59 235.25 158.83 238.81 153.62 244.53 C148.31 249.07 142.39 252.4 136.31 255.81 C134.57 256.8 132.84 257.79 131.1 258.78 C129.3 259.8 127.5 260.82 125.7 261.84 C120.05 265.04 114.44 268.3 108.81 271.56 C100.21 276.53 91.59 281.47 82.95 286.39 C76.36 290.15 69.8 293.97 63.25 297.81 C54.48 302.94 45.66 307.98 36.81 312.95 C28.49 317.64 20.24 322.44 12.02 327.29 C-4.26 336.85 -4.26 336.85 -13.48 335.24 C-18.92 333.79 -23.55 330.95 -28.37 328.12 C-29.88 327.26 -29.88 327.26 -31.41 326.37 C-34.57 324.55 -37.72 322.71 -40.87 320.87 C-42.83 319.73 -44.78 318.6 -46.73 317.46 C-49.67 315.75 -52.6 314.03 -55.54 312.32 C-63.88 307.43 -72.26 302.64 -80.66 297.85 C-88.83 293.2 -96.96 288.5 -105.06 283.75 C-113.15 279 -121.3 274.37 -129.5 269.81 C-137.65 265.27 -145.77 260.66 -153.81 255.93 C-155.12 255.17 -155.12 255.17 -156.45 254.4 C-174.43 243.76 -174.43 243.76 -177.87 236.87 C-178.75 233.35 -179.01 230.06 -179.02 226.44 C-179.03 225.36 -179.04 224.28 -179.04 223.17 C-179.05 222 -179.05 220.83 -179.05 219.62 C-179.06 218.38 -179.06 217.13 -179.07 215.85 C-179.09 211.74 -179.1 207.63 -179.11 203.52 C-179.12 202.1 -179.12 200.67 -179.13 199.25 C-179.14 192.58 -179.16 185.9 -179.17 179.23 C-179.18 171.54 -179.2 163.86 -179.24 156.17 C-179.27 150.22 -179.29 144.27 -179.29 138.31 C-179.29 134.76 -179.3 131.22 -179.33 127.67 C-179.36 123.7 -179.35 119.73 -179.34 115.77 C-179.36 114.61 -179.37 113.44 -179.38 112.25 C-179.33 104.39 -178.45 96.86 -173.02 90.8 C-168.58 86.65 -163.48 83.61 -158.19 80.68 C-157.37 80.22 -156.55 79.75 -155.7 79.28 C-153.97 78.3 -152.24 77.32 -150.5 76.34 C-146.22 73.94 -141.95 71.5 -137.69 69.06 C-136.82 68.57 -135.96 68.07 -135.07 67.56 C-128.31 63.71 -121.59 59.8 -114.87 55.87 C-103.07 48.97 -91.2 42.18 -79.31 35.41 C-69.09 29.59 -58.9 23.74 -48.75 17.81 C-47.25 16.93 -47.25 16.93 -45.72 16.04 C-41.82 13.76 -37.92 11.48 -34.01 9.2 C-31.36 7.65 -28.71 6.1 -26.06 4.56 C-24.88 3.87 -24.88 3.87 -23.67 3.16 C-22.95 2.74 -22.23 2.32 -21.48 1.88 C-20.85 1.52 -20.23 1.15 -19.58 0.77 C-13.68 -2.35 -6.14 -2.41 0 0 Z " fill="#CD3026" transform="translate(1025.874755859375,1.12890625)"/>
<path d="M0 0 C1.03 0.01 1.03 0.01 2.08 0.02 C2.79 0.02 3.49 0.02 4.22 0.02 C5.71 0.03 7.2 0.03 8.69 0.05 C10.98 0.06 13.27 0.07 15.55 0.07 C17 0.07 18.45 0.08 19.89 0.08 C20.93 0.09 20.93 0.09 21.98 0.09 C26.8 0.14 26.8 0.14 27.92 1.25 C28.04 4.04 28.1 6.81 28.11 9.6 C28.12 10.91 28.12 10.91 28.13 12.25 C28.15 14.15 28.17 16.06 28.18 17.96 C28.2 20.98 28.23 23.99 28.26 27 C28.32 33.4 28.37 39.79 28.42 46.19 C28.48 53.59 28.54 61 28.61 68.41 C28.64 71.38 28.66 74.35 28.68 77.33 C28.7 79.15 28.71 80.96 28.73 82.78 C28.73 83.61 28.74 84.44 28.74 85.3 C28.69 89.41 28.69 89.41 29.92 93.25 C30.29 92.73 30.66 92.22 31.05 91.68 C45.06 72.23 59.13 53.51 83.75 47.69 C101.53 45.23 116.92 48.4 131.88 58.58 C142.01 66.52 151.48 81.78 153.65 94.65 C155.4 111.31 154.53 124.03 146.92 139.25 C160.12 139.58 173.32 139.91 186.92 140.25 C186.9 135.37 186.87 130.48 186.85 125.45 C186.84 122.36 186.83 119.27 186.82 116.18 C186.81 111.27 186.8 106.36 186.77 101.46 C186.75 97.5 186.74 93.55 186.73 89.59 C186.73 88.08 186.72 86.57 186.71 85.06 C186.69 82.95 186.69 80.83 186.69 78.72 C186.69 77.52 186.68 76.31 186.68 75.07 C186.92 72.25 186.92 72.25 188.92 70.25 C191.35 70.07 193.66 70 196.08 70.02 C196.79 70.02 197.49 70.02 198.22 70.02 C199.71 70.03 201.2 70.03 202.69 70.05 C204.98 70.06 207.27 70.07 209.55 70.07 C211 70.07 212.45 70.08 213.89 70.08 C214.93 70.09 214.93 70.09 215.98 70.09 C220.8 70.14 220.8 70.14 221.92 71.25 C222.04 73.37 222.1 75.49 222.13 77.61 C222.14 78.27 222.15 78.93 222.16 79.62 C222.19 81.82 222.21 84.02 222.24 86.22 C222.26 87.75 222.28 89.27 222.3 90.79 C222.35 94.81 222.4 98.83 222.45 102.84 C222.5 106.94 222.56 111.03 222.61 115.13 C222.72 123.17 222.82 131.21 222.92 139.25 C225.33 139.28 227.73 139.3 230.13 139.32 C230.81 139.33 231.49 139.34 232.19 139.35 C238.36 139.38 242.8 138.9 247.66 134.78 C254.38 127.75 254.22 119.05 254.26 109.82 C254.29 108.22 254.29 108.22 254.31 106.58 C254.37 102.02 254.41 97.46 254.45 92.9 C254.49 89.56 254.53 86.22 254.58 82.89 C254.58 81.85 254.59 80.81 254.59 79.74 C254.61 78.79 254.62 77.83 254.63 76.85 C254.64 76.01 254.65 75.17 254.66 74.3 C254.92 72.25 254.92 72.25 256.92 70.25 C259.98 70.01 259.98 70.01 263.86 70.02 C264.89 70.02 264.89 70.02 265.93 70.02 C267.37 70.03 268.82 70.03 270.26 70.05 C272.48 70.06 274.69 70.07 276.91 70.07 C287.77 70.1 287.77 70.1 288.92 71.25 C289.03 72.87 289.07 74.49 289.08 76.1 C289.09 77.66 289.09 77.66 289.11 79.24 C289.12 80.37 289.12 81.5 289.13 82.66 C289.16 85.04 289.19 87.41 289.22 89.79 C289.26 93.55 289.3 97.3 289.32 101.06 C289.35 104.68 289.4 108.29 289.44 111.91 C289.45 113.58 289.45 113.58 289.45 115.29 C289.56 122.31 289.97 128.67 294.61 134.31 C299.86 138.18 304.37 139.68 310.92 139.25 C315.92 138.41 319.1 137 322.86 133.56 C326.57 127.6 327.17 121.65 327.15 114.73 C327.15 113.68 327.15 113.68 327.15 112.6 C327.15 110.31 327.13 108.02 327.12 105.72 C327.11 104.12 327.11 102.52 327.11 100.91 C327.1 96.72 327.08 92.52 327.06 88.33 C327.04 84.04 327.03 79.75 327.02 75.46 C327 67.05 326.96 58.65 326.92 50.25 C329.88 48.77 332.84 49.23 336.08 49.34 C336.79 49.36 337.49 49.38 338.22 49.4 C339.71 49.45 341.2 49.5 342.69 49.55 C344.98 49.63 347.27 49.69 349.55 49.76 C351 49.81 352.45 49.85 353.89 49.9 C354.93 49.93 354.93 49.93 355.98 49.96 C360.81 50.14 360.81 50.14 361.92 51.25 C362.04 53.65 362.09 56.03 362.1 58.43 C362.11 59.55 362.11 59.55 362.12 60.7 C362.14 63.21 362.15 65.71 362.16 68.21 C362.16 69.06 362.17 69.92 362.17 70.8 C362.19 75.34 362.21 79.88 362.22 84.42 C362.23 89.09 362.26 93.75 362.3 98.42 C362.33 102.02 362.34 105.63 362.34 109.23 C362.34 110.95 362.35 112.67 362.37 114.38 C362.53 129.54 360.43 141.57 349.92 153.25 C337.76 165.2 324.11 171.23 306.92 171.25 C296.16 170.54 285.93 167.73 277.48 160.81 C275.68 159.3 275.68 159.3 273.92 158.25 C269.75 158.83 267.12 161.62 263.92 164.25 C253.36 171.8 239.61 171.4 227.2 171.39 C225.94 171.4 224.68 171.4 223.39 171.4 C219.91 171.41 216.44 171.41 212.96 171.41 C209.21 171.41 205.46 171.42 201.7 171.43 C193.51 171.44 185.31 171.45 177.11 171.45 C172 171.46 166.88 171.46 161.76 171.46 C147.59 171.48 133.42 171.49 119.25 171.49 C118.35 171.49 117.44 171.49 116.51 171.49 C115.15 171.49 115.15 171.49 113.76 171.49 C111.92 171.49 110.08 171.49 108.24 171.49 C107.33 171.49 106.42 171.49 105.48 171.49 C90.67 171.5 75.86 171.51 61.05 171.54 C45.84 171.56 30.64 171.57 15.43 171.58 C6.89 171.58 -1.65 171.58 -10.18 171.6 C-17.44 171.62 -24.71 171.62 -31.97 171.61 C-35.68 171.61 -39.38 171.61 -43.09 171.62 C-47.1 171.64 -51.11 171.63 -55.12 171.62 C-56.3 171.63 -57.48 171.64 -58.7 171.64 C-59.77 171.64 -60.84 171.63 -61.94 171.62 C-62.87 171.62 -63.79 171.63 -64.75 171.63 C-67.55 171.18 -68.38 170.48 -70.08 168.25 C-71.25 165.55 -71.25 165.55 -72.27 162.56 C-72.61 161.57 -72.96 160.58 -73.31 159.55 C-73.56 158.79 -73.82 158.03 -74.08 157.25 C-74.63 157.84 -75.17 158.44 -75.73 159.05 C-85.79 169.58 -96.16 174.18 -110.79 174.61 C-118.6 174.68 -125.73 174.14 -133.08 171.25 C-133.89 170.95 -134.71 170.64 -135.54 170.33 C-143.36 166.93 -149.13 161.18 -155.08 155.25 C-155.7 154.65 -156.32 154.06 -156.96 153.44 C-167.95 141.93 -170.62 124.71 -170.5 109.43 C-169.98 93.3 -164.35 76.76 -152.97 64.95 C-142.53 55.56 -130.09 50.1 -116.04 50.11 C-114.83 50.1 -114.83 50.1 -113.59 50.1 C-110.93 50.09 -108.27 50.09 -105.6 50.08 C-103.75 50.08 -101.9 50.08 -100.05 50.07 C-96.18 50.07 -92.3 50.07 -88.43 50.07 C-83.45 50.07 -78.48 50.05 -73.5 50.04 C-69.68 50.03 -65.86 50.02 -62.04 50.02 C-60.21 50.02 -58.38 50.02 -56.54 50.01 C-53.98 50 -51.42 50 -48.86 50.01 C-47.72 50 -47.72 50 -46.55 49.99 C-41.31 50.02 -41.31 50.02 -39.08 52.25 C-38.89 54.99 -38.83 57.63 -38.85 60.37 C-38.85 61.21 -38.85 62.05 -38.85 62.92 C-38.85 65.7 -38.87 68.48 -38.88 71.26 C-38.89 73.19 -38.89 75.11 -38.89 77.04 C-38.9 82.11 -38.92 87.18 -38.94 92.26 C-38.96 97.43 -38.97 102.61 -38.98 107.78 C-39 117.94 -39.04 128.09 -39.08 138.25 C-23.24 138.75 -23.24 138.75 -7.08 139.25 C-7.09 135.11 -7.1 130.97 -7.11 126.71 C-7.14 113.06 -7.17 99.41 -7.18 85.77 C-7.19 77.49 -7.21 69.21 -7.23 60.94 C-7.25 53.72 -7.26 46.51 -7.27 39.3 C-7.27 35.48 -7.28 31.66 -7.29 27.84 C-7.3 24.24 -7.31 20.65 -7.31 17.06 C-7.31 15.1 -7.32 13.15 -7.33 11.2 C-7.33 10.04 -7.32 8.88 -7.32 7.69 C-7.32 6.69 -7.32 5.68 -7.33 4.64 C-6.84 -0.11 -4.15 0.02 0 0 Z " fill="#CD3026" transform="translate(174.07984924316406,79.74775695800781)"/>
<path d="M0 0 C1.24 0 2.48 0.01 3.76 0.01 C4.42 0.01 5.08 0.01 5.76 0.01 C7.16 0.02 8.55 0.02 9.95 0.04 C12.09 0.06 14.24 0.06 16.38 0.06 C26.89 0.1 26.89 0.1 28.03 1.24 C28.13 2.8 28.16 4.36 28.16 5.92 C28.16 7.44 28.16 7.44 28.16 8.98 C28.16 10.1 28.15 11.22 28.15 12.37 C28.15 13.54 28.15 14.71 28.15 15.92 C28.15 19.14 28.14 22.36 28.14 25.58 C28.13 28.94 28.13 32.3 28.13 35.66 C28.13 42.03 28.12 48.39 28.11 54.76 C28.1 62.01 28.09 69.26 28.09 76.5 C28.07 91.42 28.06 106.33 28.03 121.24 C27.19 121.25 26.34 121.26 25.46 121.27 C17.47 121.37 9.48 121.47 1.49 121.58 C-2.62 121.64 -6.73 121.69 -10.84 121.74 C-14.8 121.79 -18.76 121.84 -22.72 121.9 C-24.24 121.92 -25.75 121.94 -27.27 121.95 C-29.38 121.98 -31.49 122.01 -33.61 122.04 C-34.82 122.05 -36.02 122.07 -37.26 122.08 C-39.88 121.94 -39.88 121.94 -40.97 123.24 C-41.24 125.18 -41.48 127.12 -41.72 129.06 C-43.81 142.68 -49.66 153.05 -60.56 161.48 C-79.69 175.01 -105.3 174.53 -127.52 170.78 C-129.97 170.24 -129.97 170.24 -132.97 169.24 C-132.54 162.63 -131.49 156.23 -130.15 149.74 C-130 148.94 -129.85 148.14 -129.69 147.31 C-128.48 141.69 -128.48 141.69 -126.14 139.66 C-123.44 139.14 -121.65 139.49 -118.97 140.12 C-113.19 141.21 -107.63 141.48 -101.78 141.49 C-100.95 141.5 -100.12 141.51 -99.26 141.52 C-89.98 141.48 -81.01 140.2 -74.15 133.49 C-71.73 129.89 -71.43 127.5 -70.97 123.24 C-71.97 123.23 -72.98 123.22 -74.02 123.21 C-77.83 123.17 -81.65 123.11 -85.47 123.04 C-87.1 123.01 -88.74 122.99 -90.38 122.97 C-111.39 122.78 -128.02 118.52 -143.75 103.66 C-153.59 92.94 -158.85 79.32 -159 64.82 C-158.18 46.72 -150.63 30.21 -137.97 17.24 C-123.76 4.91 -108.18 0.74 -89.71 0.91 C-88.27 0.92 -86.83 0.92 -85.39 0.92 C-82.4 0.93 -79.41 0.94 -76.42 0.96 C-72.58 0.99 -68.74 1 -64.9 1.01 C-61.94 1.01 -58.98 1.02 -56.02 1.03 C-54.61 1.04 -53.19 1.04 -51.77 1.05 C-49.81 1.05 -47.84 1.07 -45.87 1.08 C-44.19 1.09 -44.19 1.09 -42.48 1.1 C-39.97 1.24 -39.97 1.24 -38.97 2.24 C-38.84 4.98 -38.78 7.7 -38.76 10.43 C-38.75 11.29 -38.74 12.15 -38.73 13.04 C-38.7 15.89 -38.67 18.74 -38.65 21.59 C-38.63 23.56 -38.61 25.53 -38.59 27.51 C-38.53 32.71 -38.48 37.91 -38.43 43.11 C-38.38 48.41 -38.33 53.71 -38.27 59.01 C-38.16 69.42 -38.06 79.83 -37.97 90.24 C-21.63 90.74 -21.63 90.74 -4.97 91.24 C-4.98 88.56 -4.99 85.87 -5 83.1 C-5.03 74.25 -5.05 65.39 -5.07 56.53 C-5.08 51.16 -5.09 45.79 -5.12 40.42 C-5.14 35.24 -5.15 30.06 -5.15 24.88 C-5.16 22.9 -5.17 20.92 -5.18 18.94 C-5.19 16.17 -5.19 13.41 -5.19 10.64 C-5.2 9.81 -5.21 8.99 -5.21 8.14 C-5.19 0.42 -5.19 0.42 0 0 Z " fill="#CD3026" transform="translate(716.965087890625,128.757080078125)"/>
<path d="M0 0 C11.1 5.2 21.59 11.35 32.15 17.57 C36.88 20.35 41.64 23.08 46.44 25.75 C53.11 29.47 59.69 33.32 66.27 37.21 C71.75 40.45 77.25 43.66 82.75 46.88 C83.76 47.47 84.77 48.06 85.81 48.66 C90.87 51.62 95.95 54.55 101.06 57.42 C102.02 57.96 102.98 58.5 103.97 59.06 C105.77 60.08 107.59 61.09 109.4 62.09 C110.21 62.55 111.02 63.01 111.86 63.48 C112.92 64.07 112.92 64.07 114 64.67 C116.3 66.2 118.1 67.99 120 70 C119.35 70.35 118.69 70.7 118.02 71.07 C110.89 74.93 103.84 78.93 96.81 83 C95.69 83.65 94.56 84.3 93.4 84.97 C84.82 89.93 76.26 94.93 67.7 99.93 C60.36 104.22 52.98 108.45 45.6 112.66 C38.95 116.45 32.33 120.28 25.71 124.12 C19.66 127.63 13.58 131.09 7.49 134.54 C5.14 135.78 5.14 135.78 4 137 C-1.14 137.53 -3.95 136.27 -8.31 133.62 C-8.92 133.26 -9.52 132.9 -10.15 132.53 C-11.45 131.76 -12.74 130.98 -14.03 130.19 C-17.25 128.24 -20.5 126.34 -23.75 124.44 C-24.79 123.83 -24.79 123.83 -25.85 123.2 C-41.2 114.15 -56.67 105.32 -72.15 96.5 C-79.96 92.04 -87.73 87.5 -95.5 82.96 C-102.97 78.59 -110.47 74.27 -118 70 C-118 69.34 -118 68.68 -118 68 C-117.44 67.68 -116.88 67.37 -116.3 67.04 C-98.33 56.93 -80.43 46.68 -62.62 36.28 C-58.68 33.97 -54.72 31.69 -50.75 29.44 C-44.18 25.7 -37.65 21.88 -31.12 18.06 C-23.37 13.52 -15.59 9.03 -7.73 4.66 C-5.08 3.19 -2.53 1.68 0 0 Z " fill="#FDFDFD" transform="translate(1016,36)"/>
<path d="M0 0 C2.34 1.12 2.34 1.12 4.73 2.51 C5.62 3.02 6.5 3.53 7.42 4.06 C8.33 4.6 9.25 5.13 10.19 5.69 C11.08 6.21 11.98 6.72 12.9 7.26 C18.27 10.37 23.6 13.55 28.9 16.78 C34.56 20.08 40.54 21.04 47 20 C53.91 17.5 60.23 13.73 66.56 10.06 C67.46 9.55 68.35 9.04 69.27 8.51 C73.39 6.14 77.41 3.73 81.34 1.06 C83.76 -0.45 84.67 -1 87.58 -1.04 C90.76 0.33 93.76 1.89 96.75 3.62 C97.43 4.01 98.12 4.4 98.82 4.81 C106.32 9.12 113.71 13.63 121.11 18.11 C130 23.46 139.01 28.55 148.12 33.52 C149.11 34.07 150.1 34.61 151.12 35.17 C151.99 35.65 152.86 36.12 153.76 36.61 C155.86 37.91 157.31 39.23 159 41 C159.99 41.66 160.98 42.32 162 43 C161.1 43.35 160.19 43.7 159.26 44.07 C153.53 46.52 148.24 49.8 142.88 52.94 C141.12 53.96 139.37 54.98 137.61 56 C136.43 56.68 135.25 57.37 134.07 58.05 C128.86 61.09 123.62 64.08 118.38 67.06 C109.7 72.01 101.07 77.03 92.46 82.07 C85.65 86.05 78.82 89.99 71.96 93.89 C67.62 96.36 63.28 98.83 58.94 101.31 C58.03 101.83 57.13 102.35 56.19 102.88 C55.33 103.37 54.47 103.86 53.59 104.36 C52.37 105.05 52.37 105.05 51.13 105.75 C48.86 107.05 48.86 107.05 46.25 108.92 C43.05 110.46 41.39 110 38 109 C35.52 107.78 33.19 106.53 30.81 105.12 C30.12 104.73 29.44 104.33 28.73 103.92 C27.25 103.07 25.77 102.21 24.3 101.34 C21.98 99.99 19.66 98.65 17.33 97.31 C10.46 93.35 3.61 89.37 -3.21 85.33 C-11.58 80.38 -20.02 75.58 -28.49 70.82 C-34.23 67.58 -39.95 64.3 -45.62 60.94 C-52.18 57.06 -58.77 53.23 -65.38 49.44 C-66.29 48.91 -67.2 48.39 -68.14 47.85 C-68.99 47.36 -69.84 46.87 -70.71 46.37 C-71.47 45.94 -72.22 45.5 -73 45.06 C-75.11 43.87 -75.11 43.87 -78 43 C-78 42.34 -78 41.68 -78 41 C-76.91 40.47 -75.82 39.95 -74.69 39.4 C-69.3 36.7 -64.13 33.63 -58.94 30.56 C-49.77 25.18 -40.55 19.9 -31.27 14.72 C-26.69 12.15 -22.17 9.52 -17.73 6.71 C-16.91 6.19 -16.09 5.67 -15.24 5.13 C-13.71 4.16 -12.18 3.17 -10.67 2.16 C-9.99 1.73 -9.31 1.3 -8.62 0.85 C-7.74 0.28 -7.74 0.28 -6.85 -0.31 C-4.22 -1.29 -2.67 -0.8 0 0 Z " fill="#FDFDFD" transform="translate(975,189)"/>
<path d="M0 0 C6.19 3.83 10.21 10.64 12.36 17.46 C14.19 26.39 13.63 35.36 8.74 43.21 C2.47 51.68 -4.97 56.97 -15.4 59 C-18.63 59.46 -21.66 59.58 -24.92 59.57 C-26.14 59.57 -27.36 59.57 -28.62 59.57 C-29.92 59.57 -31.22 59.56 -32.57 59.56 C-33.93 59.56 -35.28 59.56 -36.64 59.55 C-40.2 59.55 -43.77 59.54 -47.33 59.53 C-50.97 59.52 -54.61 59.51 -58.25 59.51 C-65.38 59.5 -72.51 59.48 -79.64 59.46 C-79.64 55.11 -76.97 53.05 -74.2 49.96 C-73.08 48.69 -71.97 47.42 -70.86 46.14 C-70.3 45.52 -69.75 44.89 -69.18 44.24 C-67.13 41.88 -65.16 39.46 -63.2 37.02 C-24.38 -10.69 -24.38 -10.69 0 0 Z " fill="#FDFDFD" transform="translate(281.63671875,160.5390625)"/>
<path d="M0 0 C1.41 0.01 2.82 0.01 4.23 0.01 C7.65 0.03 11.08 0.04 14.5 0.06 C16.69 4.45 15.69 10.4 15.69 15.28 C15.69 17.46 15.71 19.64 15.72 21.82 C15.82 45.18 15.82 45.18 8.12 53.69 C-0.11 61.14 -6.41 62.95 -17.5 63.06 C-26.08 62.31 -33.37 59.66 -39.31 53.31 C-45.78 45.3 -46.95 36.29 -46.32 26.16 C-45.22 18.15 -41.84 12.5 -36.25 6.75 C-24.73 -0.32 -13.08 -0.08 0 0 Z " fill="#FDFDFD" transform="translate(84.5,160.9375)"/>
<path d="M0 0 C1 1 1 1 1.12 3.32 C1.12 4.35 1.12 5.38 1.11 6.44 C1.11 7.6 1.11 8.76 1.11 9.96 C1.11 11.22 1.1 12.48 1.1 13.79 C1.1 15.07 1.09 16.36 1.09 17.68 C1.09 21.11 1.08 24.53 1.07 27.96 C1.06 31.45 1.05 34.94 1.05 38.43 C1.04 45.29 1.02 52.14 1 59 C-2.81 59.06 -6.62 59.09 -10.44 59.12 C-11.51 59.14 -12.58 59.16 -13.68 59.18 C-25.43 59.25 -34.08 57.58 -42.79 49.3 C-48.38 43.17 -50.62 37.12 -50.34 28.83 C-49.32 20.4 -45.07 12.87 -39 7 C-27.34 -1.04 -13.59 -0.58 0 0 Z " fill="#FDFDFD" transform="translate(643,161)"/>
<path d="M0 0 C3.46 0.64 6.05 1.38 9.08 3.19 C9.84 3.63 10.6 4.08 11.38 4.54 C12.18 5.02 12.99 5.5 13.81 6 C15.52 7.01 17.22 8.01 18.93 9.02 C19.78 9.52 20.63 10.02 21.51 10.54 C25.13 12.66 28.78 14.71 32.44 16.75 C33.73 17.48 35.02 18.21 36.31 18.94 C38.73 20.3 41.17 21.63 43.62 22.94 C44.72 23.54 45.81 24.13 46.94 24.75 C48.37 25.52 48.37 25.52 49.84 26.3 C52.53 28.42 52.5 29.71 53 33 C52.49 33.29 51.98 33.58 51.45 33.88 C48.97 35.29 46.48 36.71 44 38.12 C43.07 38.65 42.14 39.18 41.18 39.73 C35.94 42.73 30.71 45.75 25.51 48.81 C24.44 49.43 23.38 50.06 22.28 50.7 C20.21 51.92 18.15 53.14 16.09 54.37 C11.15 57.27 6.33 59.91 1 62 C-0.34 59.32 -0.12 57.27 -0.11 54.27 C-0.11 53.06 -0.11 51.86 -0.11 50.63 C-0.11 49.32 -0.1 48.02 -0.1 46.68 C-0.1 45.34 -0.09 43.99 -0.09 42.65 C-0.09 39.12 -0.08 35.58 -0.07 32.05 C-0.06 28.44 -0.05 24.84 -0.05 21.23 C-0.04 14.15 -0.02 7.08 0 0 Z " fill="#FDFDFD" transform="translate(882,137)"/>
<path d="M0 0 C0.66 0.33 1.32 0.66 2 1 C2.33 21.13 2.66 41.26 3 62 C-6.05 56.83 -15.1 51.65 -24.12 46.44 C-25.74 45.51 -25.74 45.51 -27.39 44.56 C-28.46 43.94 -29.53 43.32 -30.63 42.68 C-31.68 42.08 -32.73 41.47 -33.81 40.85 C-36 39.58 -38.19 38.3 -40.37 37.01 C-41.44 36.38 -42.51 35.75 -43.62 35.1 C-44.58 34.53 -45.54 33.96 -46.53 33.37 C-49.02 31.89 -49.02 31.89 -52 31 C-52 30.34 -52 29.68 -52 29 C-51.41 28.72 -50.82 28.43 -50.22 28.14 C-43.46 24.83 -36.98 21.15 -30.5 17.31 C-22.9 12.85 -15.3 8.4 -7.62 4.06 C-6.88 3.63 -6.13 3.2 -5.36 2.76 C-3.61 1.78 -1.81 0.88 0 0 Z " fill="#FDFDFD" transform="translate(1148,138)"/>
<path d="M0 0 C4.07 3.41 6.64 7.93 8.31 12.94 C8.73 18.42 7.99 22.12 5.31 26.94 C2.16 30.28 -1.01 32.67 -5.7 33.14 C-11.77 33.27 -16.81 32.69 -21.42 28.29 C-24.76 24.53 -26.5 21.9 -27 16.75 C-26.51 10.77 -24.32 6.09 -19.81 2.06 C-13.11 -2.49 -7.43 -2.94 0 0 Z " fill="#CD3026" transform="translate(110.6875,82.0625)"/>
<path d="M0 0 C4.61 3.86 7.38 8.54 8.31 14.5 C8.66 20.36 6.69 24.35 2.88 28.75 C-1.75 32.69 -5.17 33.39 -11.16 33.25 C-16.48 32.59 -20.07 29.87 -23.56 25.88 C-26.75 21.47 -27.13 18.3 -26.69 12.94 C-24.74 7.06 -21.77 3.39 -16.69 -0.06 C-10.92 -2.82 -5.81 -2.3 0 0 Z " fill="#CD3026" transform="translate(68.6875,82.0625)"/>
<path d="M0 0 C8.34 7.04 8.34 7.04 8.81 12.38 C9.12 18.8 8.69 22.68 4.94 28.06 C2.07 31.18 0.07 32.2 -4.14 32.78 C-11 32.98 -15.33 32.64 -20.6 28.08 C-24.35 24.05 -25.88 21.24 -26.31 15.75 C-26.06 10.98 -23.97 7.3 -20.76 3.84 C-14.65 -1.58 -7.49 -3.82 0 0 Z " fill="#CD3026" transform="translate(737.1875,267.625)"/>
</svg>
