<?xml version="1.0" encoding="UTF-8"?>
<!-- Generator: visioncortex VTracer 0.6.3 -->
<svg version="1.1" xmlns="http://www.w3.org/2000/svg" width="1280" height="608">
<path d="M0 0 C2.96 1.46 5.83 2.99 8.68 4.64 C11.1 6.02 13.55 7.35 16 8.67 C19.78 10.72 23.56 12.78 27.33 14.86 C32.17 17.51 37.05 20.1 41.94 22.66 C46.7 25.16 51.38 27.73 56 30.48 C61.33 33.64 66.83 36.37 72.39 39.11 C75.57 40.73 78.63 42.46 81.69 44.29 C86.08 46.9 90.54 49.24 95.13 51.48 C105.06 56.33 114.6 61.86 124.19 67.36 C127.42 69.19 130.68 70.97 133.95 72.74 C138.62 75.53 141.14 78.77 142.82 83.85 C143.07 86.54 143.07 86.54 143.08 89.5 C143.08 90.63 143.09 91.75 143.1 92.91 C143.1 94.14 143.09 95.36 143.09 96.62 C143.1 98.57 143.1 98.57 143.11 100.56 C143.12 104.11 143.12 107.67 143.12 111.22 C143.12 114.19 143.12 117.16 143.13 120.13 C143.14 127.14 143.14 134.14 143.13 141.15 C143.13 148.37 143.14 155.6 143.16 162.82 C143.18 169.03 143.18 175.23 143.18 181.44 C143.18 185.14 143.18 188.85 143.19 192.55 C143.21 196.69 143.2 200.82 143.19 204.95 C143.2 206.17 143.2 207.4 143.21 208.66 C143.17 215.37 142.9 220.31 138.32 225.58 C133.74 229.38 128.94 232.14 123.63 234.79 C121.93 235.66 120.24 236.53 118.54 237.4 C117.73 237.82 116.91 238.24 116.08 238.67 C113.16 240.2 110.33 241.85 107.5 243.54 C102.15 246.72 96.64 249.49 91.05 252.24 C85.8 254.86 80.72 257.74 75.65 260.69 C69.97 263.98 64.29 267.16 58.38 270.04 C52.03 273.16 45.9 276.59 39.75 280.1 C29.69 285.84 19.53 291.35 9.22 296.62 C7.54 297.48 5.87 298.36 4.21 299.25 C-2.85 302.95 -8.18 304.28 -16.18 302.85 C-21.15 300.97 -25.62 298.53 -30.18 295.85 C-31.77 294.94 -31.77 294.94 -33.38 294 C-35.4 292.83 -37.41 291.65 -39.41 290.46 C-41.84 289.05 -44.28 287.77 -46.81 286.54 C-51.62 284.2 -56.27 281.6 -60.93 278.98 C-66.38 275.92 -71.83 272.98 -77.43 270.23 C-83.4 267.29 -89.15 264.08 -94.9 260.75 C-101.71 256.81 -108.65 253.13 -115.61 249.48 C-123.77 245.2 -131.9 240.87 -140 236.48 C-140.92 235.98 -141.85 235.48 -142.8 234.96 C-159.52 225.85 -159.52 225.85 -162.18 217.85 C-162.28 216.05 -162.32 214.25 -162.33 212.45 C-162.34 211.33 -162.35 210.21 -162.35 209.05 C-162.36 207.82 -162.36 206.59 -162.36 205.32 C-162.37 203.38 -162.37 203.38 -162.38 201.39 C-162.4 197.09 -162.41 192.79 -162.42 188.49 C-162.43 187.01 -162.43 185.53 -162.43 184.05 C-162.45 177.09 -162.47 170.12 -162.48 163.16 C-162.49 155.13 -162.51 147.1 -162.55 139.07 C-162.58 132.86 -162.6 126.65 -162.6 120.44 C-162.6 116.73 -162.61 113.02 -162.64 109.32 C-162.66 105.18 -162.66 101.04 -162.65 96.9 C-162.67 95.68 -162.68 94.45 -162.69 93.19 C-162.65 86.51 -162.24 82.25 -158.18 76.85 C-153.6 72.36 -148.31 69.5 -142.68 66.48 C-141.8 65.99 -140.91 65.51 -139.99 65.01 C-135.04 62.33 -130.05 59.76 -125 57.29 C-119.02 54.36 -113.35 51.04 -107.65 47.62 C-102.18 44.36 -96.58 41.47 -90.86 38.68 C-85.81 36.21 -80.99 33.44 -76.17 30.56 C-72.94 28.71 -69.65 27.05 -66.31 25.41 C-61.49 23.05 -56.82 20.55 -52.18 17.85 C-46.36 14.46 -40.43 11.42 -34.38 8.45 C-31.61 7.06 -28.89 5.62 -26.18 4.1 C-25.48 3.71 -24.77 3.32 -24.04 2.92 C-22.47 2.02 -20.95 1.04 -19.43 0.04 C-12.98 -2.32 -6.48 -2.34 0 0 Z M-14.97 29.48 C-15.66 29.85 -16.35 30.22 -17.06 30.61 C-18.14 31.22 -18.14 31.22 -19.25 31.85 C-20 32.27 -20.76 32.68 -21.53 33.11 C-26.83 36.03 -32.04 39.09 -37.23 42.18 C-41.6 44.66 -46.11 46.82 -50.61 49.04 C-54.22 50.84 -57.7 52.82 -61.18 54.85 C-65.59 57.42 -70.04 59.81 -74.62 62.04 C-82.12 65.72 -89.35 69.86 -96.61 73.99 C-104.39 78.43 -112.25 82.7 -120.18 86.85 C-116.51 89.95 -112.68 92.45 -108.5 94.79 C-107.88 95.14 -107.26 95.49 -106.62 95.85 C-102.43 98.2 -98.18 100.4 -93.87 102.52 C-84.69 107.08 -75.76 112.05 -66.95 117.27 C-63.61 119.18 -60.2 120.86 -56.75 122.54 C-53.82 124.04 -51.01 125.68 -48.18 127.35 C-43.89 129.88 -39.58 132.21 -35.1 134.39 C-30.38 136.75 -25.73 139.25 -21.07 141.73 C-20.37 142.1 -19.67 142.48 -18.94 142.86 C-18.31 143.2 -17.69 143.53 -17.04 143.88 C-16.43 144.2 -15.81 144.52 -15.18 144.85 C-14.5 145.23 -13.82 145.6 -13.12 145.98 C-10.14 147.32 -8.3 146.7 -5.18 145.85 C-2.66 144.59 -0.29 143.29 2.13 141.85 C3.55 141.03 4.96 140.21 6.38 139.39 C7.11 138.97 7.84 138.55 8.59 138.11 C12.2 136.06 15.88 134.15 19.57 132.23 C25.53 129.1 31.36 125.82 37.15 122.39 C40.32 120.56 43.58 118.96 46.87 117.36 C50.83 115.33 54.69 113.15 58.57 110.98 C64.01 107.92 69.47 104.98 75.07 102.23 C83.91 97.88 92.38 92.94 100.82 87.85 C99.29 84.81 96.87 84.29 93.82 82.85 C88.19 80.13 82.8 77.14 77.44 73.91 C71.25 70.2 64.98 66.84 58.49 63.68 C53.43 61.2 48.6 58.43 43.77 55.54 C40.73 53.8 37.65 52.26 34.5 50.73 C26.88 46.99 19.53 42.79 12.16 38.56 C-0.8 29.65 -0.8 29.65 -14.97 29.48 Z M-134.18 112.85 C-134.18 137.93 -134.18 163.01 -134.18 188.85 C-129.36 187.24 -125.97 185.71 -121.68 183.16 C-116.93 180.38 -112.14 177.78 -107.18 175.35 C-100.97 172.31 -95.01 168.95 -89.05 165.45 C-86.18 163.85 -86.18 163.85 -83.18 162.85 C-83.18 162.19 -83.18 161.53 -83.18 160.85 C-82.51 160.77 -81.84 160.69 -81.14 160.61 C-77.29 159.62 -74.27 157.81 -70.87 155.79 C-69.9 155.22 -69.9 155.22 -68.92 154.65 C-67.33 153.72 -65.76 152.79 -64.18 151.85 C-64.18 151.19 -64.18 150.53 -64.18 149.85 C-64.85 149.49 -65.52 149.12 -66.2 148.75 C-80.68 140.85 -80.68 140.85 -83.45 139.34 C-85.24 138.37 -87.03 137.39 -88.83 136.42 C-93.33 133.98 -97.8 131.5 -102.23 128.94 C-108.74 125.17 -115.35 121.71 -122.1 118.39 C-124.6 117.14 -127.02 115.84 -129.43 114.41 C-131.95 112.69 -131.95 112.69 -134.18 112.85 Z M106.63 116.1 C105.97 116.46 105.31 116.81 104.63 117.17 C95.98 121.82 87.36 126.54 78.74 131.26 C75.77 132.88 72.8 134.5 69.83 136.11 C68.86 136.65 67.88 137.18 66.87 137.73 C65.02 138.74 63.17 139.75 61.31 140.75 C55.8 143.76 50.3 146.79 44.82 149.85 C44.82 150.51 44.82 151.17 44.82 151.85 C45.48 152.21 46.14 152.57 46.83 152.93 C68.64 164.68 68.64 164.68 75.32 168.66 C80.45 171.72 85.74 174.37 91.09 177 C95.34 179.1 99.52 181.28 103.63 183.65 C106.97 185.49 110.41 187.15 113.82 188.85 C113.82 163.77 113.82 138.69 113.82 112.85 C111.41 112.85 108.75 114.96 106.63 116.1 Z M-40.62 170.54 C-44.8 172.95 -48.97 175.3 -53.31 177.41 C-57.04 179.23 -60.61 181.24 -64.18 183.35 C-68.54 185.92 -72.93 188.28 -77.47 190.5 C-82.65 193.08 -87.75 195.84 -92.84 198.59 C-94.55 199.51 -96.25 200.42 -97.96 201.34 C-100.95 202.94 -103.94 204.55 -106.93 206.16 C-107.9 206.68 -108.86 207.2 -109.86 207.73 C-110.76 208.22 -111.67 208.71 -112.61 209.21 C-113.42 209.65 -114.23 210.09 -115.06 210.54 C-117.09 211.79 -118.58 213.09 -120.18 214.85 C-110.63 220.24 -101.06 225.49 -91.22 230.34 C-87.88 232 -84.63 233.77 -81.38 235.61 C-78.87 237.03 -76.34 238.41 -73.81 239.79 C-72.88 240.29 -71.96 240.8 -71 241.32 C-70.07 241.82 -69.14 242.33 -68.18 242.85 C-65.43 244.35 -62.68 245.85 -59.93 247.36 C-58.11 248.35 -56.29 249.33 -54.47 250.32 C-49.75 252.87 -45.1 255.48 -40.5 258.23 C-35.08 261.42 -29.53 264.26 -23.88 267.01 C-23.24 267.32 -22.6 267.64 -21.95 267.96 C-21.32 268.26 -20.69 268.57 -20.05 268.88 C-18.13 269.88 -16.34 271 -14.52 272.15 C-11.45 274.03 -11.45 274.03 -8.77 273.87 C-4.97 272.37 -1.4 270.54 2.19 268.6 C3.01 268.17 3.83 267.73 4.67 267.28 C12.44 263.12 20.09 258.76 27.75 254.4 C33.36 251.21 38.99 248.18 44.8 245.37 C48.88 243.32 52.84 241.08 56.82 238.85 C61.81 236.05 66.8 233.31 71.94 230.79 C79.41 227.13 86.6 222.98 93.82 218.85 C94.49 218.47 95.16 218.08 95.85 217.69 C97.51 216.74 99.16 215.8 100.82 214.85 C98.32 211.11 95.38 209.96 91.44 208.1 C86.41 205.67 81.49 203.16 76.69 200.29 C72.58 197.83 68.43 195.63 64.13 193.54 C58.74 190.89 53.59 188 48.44 184.91 C42.21 181.18 35.91 177.68 29.34 174.58 C26.44 173.21 23.83 171.86 21.26 169.93 C18.56 167.96 17.18 167.12 13.82 166.85 C9.6 168.21 5.7 170.22 1.85 172.39 C-3.61 175.44 -7.91 177.08 -14.18 175.85 C-17.68 174.63 -20.9 173.05 -24.18 171.35 C-25.87 170.51 -27.56 169.66 -29.25 168.82 C-29.98 168.44 -30.71 168.07 -31.47 167.68 C-35 165.98 -37.53 168.73 -40.62 170.54 Z " fill="#F90302" transform="translate(326.18359375,153.1484375)"/>
<path d="M0 0 C4.21 2.77 6.76 6.22 8.75 10.81 C9.03 12.85 9.03 12.85 9.07 15.03 C9.09 15.85 9.11 16.67 9.13 17.52 C9.14 18.39 9.15 19.27 9.16 20.17 C9.18 21.08 9.2 21.98 9.22 22.91 C9.28 25.8 9.33 28.68 9.38 31.56 C9.41 33.52 9.45 35.48 9.49 37.43 C9.59 42.23 9.67 47.02 9.75 51.81 C10.34 51.27 10.93 50.73 11.53 50.17 C12.72 49.09 12.72 49.09 13.92 48 C14.7 47.29 15.47 46.58 16.27 45.85 C26.44 37.5 38.12 36.81 50.75 37.81 C62.45 39.8 71.88 46.02 79.75 54.81 C80.55 55.62 81.36 56.42 82.19 57.25 C93.2 70.8 93.76 89.44 92.51 106.01 C90.91 118.27 85.65 130.11 76.75 138.81 C75.76 139.14 74.77 139.47 73.75 139.81 C73.75 140.47 73.75 141.13 73.75 141.81 C64.11 149.66 54.66 151.99 42.5 152.06 C41.14 152.09 41.14 152.09 39.76 152.12 C28.31 152.19 19.56 148.19 11.19 140.44 C10.71 139.9 10.24 139.37 9.75 138.81 C9.37 139.43 9 140.04 8.61 140.68 C2.82 149.82 2.82 149.82 -3.13 151.27 C-9.28 152.33 -13.25 151.19 -18.44 147.62 C-24.07 141.99 -24.6 136.7 -24.67 129.03 C-24.66 127.89 -24.66 126.75 -24.65 125.58 C-24.66 124.36 -24.67 123.14 -24.67 121.89 C-24.69 118.57 -24.69 115.25 -24.69 111.92 C-24.68 109.14 -24.69 106.36 -24.69 103.58 C-24.71 97.02 -24.71 90.45 -24.7 83.89 C-24.68 77.14 -24.7 70.38 -24.73 63.62 C-24.75 57.81 -24.75 51.99 -24.75 46.18 C-24.75 42.71 -24.75 39.25 -24.76 35.78 C-24.78 31.91 -24.77 28.04 -24.75 24.18 C-24.76 23.04 -24.77 21.9 -24.78 20.73 C-24.72 14.32 -24.16 9.07 -20.25 3.81 C-13.97 -1.19 -7.6 -2.78 0 0 Z M14.75 73.81 C8.1 83.83 7.36 94.65 9.14 106.39 C11.29 113.17 16.91 118.83 22.62 122.81 C30.15 125.22 38.31 125.81 45.75 122.81 C52.37 118.24 57.39 112.61 59.75 104.81 C60.08 101.73 60.13 98.67 60.12 95.56 C60.12 94.71 60.12 93.86 60.12 92.99 C60 86.86 59.28 81.97 55.75 76.81 C55.15 75.9 54.55 75 53.94 74.06 C47.93 67.88 43.05 65.68 34.44 65.56 C26.36 65.64 20.31 67.57 14.75 73.81 Z " fill="#FA0302" transform="translate(554.25,228.1875)"/>
<path d="M0 0 C2.19 -0 4.37 -0.04 6.56 -0.08 C20.01 -0.19 31.27 2.9 41.96 11.37 C49.94 19.36 54.16 31.9 54.26 43.01 C54.28 44.28 54.29 45.56 54.31 46.87 C54.32 48.24 54.32 49.62 54.33 50.99 C54.34 52.42 54.35 53.85 54.35 55.28 C54.37 58.26 54.38 61.25 54.38 64.23 C54.39 68.04 54.43 71.84 54.47 75.65 C54.5 78.6 54.51 81.55 54.51 84.49 C54.51 85.9 54.53 87.3 54.55 88.7 C54.66 96.82 54.56 103.13 48.96 109.37 C45.35 112.76 42.43 113.26 37.58 113.62 C32.97 113.3 29.81 112.25 26.51 108.91 C24.74 106.84 23.17 104.81 21.96 102.37 C21.47 102.76 20.99 103.14 20.49 103.54 C10.82 111.06 3.42 113.56 -8.73 113.62 C-9.69 113.64 -10.64 113.66 -11.63 113.68 C-22.45 113.74 -31.78 110.55 -39.73 103.12 C-46.02 96.48 -49.04 88.21 -49.04 79.05 C-48.4 71.37 -46.07 62.36 -41.04 56.37 C-27.67 45.11 -11.85 42.52 5.21 43.62 C11.28 44.25 17.09 45.72 22.96 47.37 C21.14 40.3 19.68 34.92 13.39 30.62 C2.22 26.56 -10.88 28.09 -22.04 31.37 C-26.77 31.95 -30.08 31.83 -34.42 29.75 C-37.42 27.03 -38.78 25.23 -40.04 21.37 C-40.24 17.27 -39.28 13.98 -37.79 10.18 C-33.43 5.72 -27.93 4.19 -22.04 2.37 C-20.36 1.82 -20.36 1.82 -18.64 1.25 C-12.55 -0.21 -6.22 -0 0 0 Z M-14.67 69.68 C-16.94 74.11 -17.4 77.7 -16.36 82.56 C-14.35 86.85 -12.44 88.75 -8.11 90.68 C-0.44 92.52 8.56 91.5 15.37 87.54 C18.96 84.89 21.26 81.44 22.96 77.37 C23.2 74.78 23.2 74.78 23.08 72.12 C23.06 71.23 23.05 70.34 23.03 69.42 C23 68.74 22.98 68.07 22.96 67.37 C11.06 62 -4.24 60.5 -14.67 69.68 Z " fill="#FA0302" transform="translate(1003.04345703125,266.62939453125)"/>
<path d="M0 0 C1.19 -0.01 1.19 -0.01 2.41 -0.02 C15.83 0.02 28.32 4.54 38.56 13.25 C39.24 13.79 39.91 14.34 40.61 14.89 C44.23 17.87 44.23 17.87 45.56 19.25 C45.56 19.91 45.56 20.57 45.56 21.25 C46.22 21.25 46.88 21.25 47.56 21.25 C57.63 32.95 61.38 48.2 60.29 63.27 C59.15 75.14 54.58 83.76 47.56 93.25 C47.12 93.87 46.67 94.49 46.21 95.12 C38.08 105.71 24.13 112.19 11.38 114.94 C-6.18 116.38 -20.4 113.21 -35.44 104.25 C-35.44 103.59 -35.44 102.93 -35.44 102.25 C-36.27 101.88 -36.27 101.88 -37.12 101.5 C-42.7 98.48 -45.82 94.65 -49.06 89.38 C-49.44 88.78 -49.83 88.18 -50.22 87.56 C-57.98 75.22 -61.58 62.26 -58.75 47.7 C-55.96 37.04 -51.13 26.34 -43.44 18.25 C-42.78 18.25 -42.12 18.25 -41.44 18.25 C-41.44 17.59 -41.44 16.93 -41.44 16.25 C-29.72 5.68 -15.82 -0.15 0 0 Z M-20.44 37.25 C-21.14 38.01 -21.84 38.78 -22.56 39.56 C-27.76 47.01 -28.39 54.37 -27.44 63.25 C-25.1 72.78 -21.14 78.71 -12.86 83.95 C-5.15 88.08 3.47 88.05 11.76 85.6 C18.68 82.64 24.4 76.42 27.56 69.62 C30.18 60.93 29.75 51.7 25.81 43.56 C23.81 39.91 21.72 36.99 18.56 34.25 C17.9 34.25 17.24 34.25 16.56 34.25 C16.56 33.59 16.56 32.93 16.56 32.25 C4.37 25.73 -11.1 25.99 -20.44 37.25 Z " fill="#F90302" transform="translate(714.4375,265.75)"/>
<path d="M0 0 C3.67 3.32 4.68 6.28 5.03 11.08 C4.98 14.64 4.15 16.87 1.6 19.38 C-2.83 23.18 -5.19 24.38 -11 24 C-14 22.98 -14 22.98 -17 21.62 C-26.6 17.35 -35.78 14.09 -46 18 C-47.97 19.97 -47.66 23.35 -48 26 C-44.37 27.95 -40.55 29.33 -36.69 30.75 C-35.25 31.29 -33.81 31.82 -32.38 32.36 C-30.24 33.16 -28.1 33.96 -25.96 34.75 C-17.48 37.9 -9.12 41.26 -2 47 C-2 47.66 -2 48.32 -2 49 C-0.51 49.5 -0.51 49.5 1 50 C6.78 59.11 8.33 66.99 6.54 77.79 C4.28 86.43 -0.75 92.84 -8 98 C-21.26 105.65 -38.37 106.19 -53.33 103.32 C-61.01 101.24 -68.07 97.87 -75 94 C-75.89 93.51 -76.78 93.03 -77.7 92.52 C-81.07 90.3 -82.53 87.71 -84 84 C-84.69 79.14 -83.41 76.21 -81 72 C-80.34 72 -79.68 72 -79 72 C-79 71.34 -79 70.68 -79 70 C-74.24 67.39 -70.1 67.66 -65 69 C-61.85 70.38 -58.83 71.9 -55.8 73.53 C-48.88 77.17 -42.67 78.15 -34.88 78.25 C-33.08 78.29 -33.08 78.29 -31.24 78.33 C-27.77 77.98 -26.39 77.5 -24 75 C-23.42 72 -23.42 72 -24 69 C-26 66.53 -27.81 65.49 -30.81 64.54 C-31.92 64.17 -31.92 64.17 -33.05 63.81 C-33.84 63.56 -34.63 63.32 -35.44 63.06 C-36.65 62.67 -36.65 62.67 -37.89 62.27 C-41.4 61.12 -44.93 60.02 -48.47 58.97 C-59.15 55.71 -69.55 50.35 -74.99 40.14 C-78.84 31.59 -79.14 22.19 -76.81 13.12 C-73.76 5.15 -66.53 -1.67 -59.07 -5.51 C-40.29 -13.69 -17.38 -10.65 0 0 Z " fill="#F90302" transform="translate(863,276)"/>
<path d="M0 0 C4.25 2.75 7.72 6.38 10 10.94 C10.07 13.82 10.09 16.68 10.06 19.56 C10.06 20.36 10.05 21.17 10.05 21.99 C10.04 23.97 10.02 25.96 10 27.94 C11.38 27.89 11.38 27.89 12.78 27.83 C19.96 27.67 25.49 27.81 32 30.94 C32 31.6 32 32.26 32 32.94 C32.66 32.94 33.32 32.94 34 32.94 C37.12 36.66 37.52 40.04 37.36 44.72 C36.68 48.95 34.29 51.55 31.47 54.59 C27.55 56.73 23.63 56.25 19.25 56.12 C17.92 56.1 17.92 56.1 16.56 56.08 C14.37 56.05 12.19 56 10 55.94 C10.09 62.82 10.2 69.71 10.32 76.6 C10.36 78.94 10.39 81.28 10.42 83.63 C10.47 86.99 10.53 90.36 10.59 93.73 C10.6 94.78 10.61 95.82 10.62 96.9 C10.64 97.88 10.66 98.86 10.68 99.87 C10.69 100.73 10.71 101.59 10.72 102.48 C11.04 105.27 11.78 107.41 13 109.94 C16 112.1 18.81 112.21 22.44 112.38 C29.73 112.97 29.73 112.97 33 115.94 C35.47 119.16 36.86 121.96 37.44 126 C36.93 129.44 35.72 131.93 34 134.94 C33.34 134.94 32.68 134.94 32 134.94 C32 135.6 32 136.26 32 136.94 C24.94 140.64 18.21 141.35 10.38 141.38 C9.49 141.38 8.61 141.39 7.7 141.4 C-1.16 141.29 -8.66 139.32 -15.21 133.16 C-23.25 123.19 -23.15 111.12 -23.1 99 C-23.1 97.77 -23.09 96.54 -23.09 95.27 C-23.09 91.34 -23.08 87.42 -23.06 83.5 C-23.06 80.83 -23.05 78.17 -23.05 75.5 C-23.04 68.98 -23.02 62.46 -23 55.94 C-24.1 55.82 -25.19 55.7 -26.32 55.58 C-30.82 54.79 -32.16 53.43 -35 49.94 C-37.25 46.62 -37.4 43.91 -37 39.94 C-35.22 35.27 -33.15 32.7 -29 29.94 C-27.34 29.25 -25.68 28.58 -24 27.94 C-23.97 27.12 -23.95 26.29 -23.92 25.45 C-23.49 16.92 -22.76 8.79 -16.56 2.44 C-10.87 -0.9 -6.44 -2.28 0 0 Z " fill="#FA0302" transform="translate(912,239.0625)"/>
<path d="M0 0 C3.02 1.74 5.42 3.83 7 7 C7.5 11.97 7.55 14.06 5 18.44 C1.77 21.19 0.12 21.96 -4.01 22.17 C-7.27 21.89 -9.34 20.86 -12 19 C-14.43 16.08 -14.96 14.28 -15.44 10.5 C-14.93 6.4 -13.89 4.89 -11 2 C-7.31 -0.46 -4.28 -0.82 0 0 Z M-8 4 C-8 4.33 -8 4.66 -8 5 C-5.36 5 -2.72 5 0 5 C0 4.67 0 4.34 0 4 C-2.64 4 -5.28 4 -8 4 Z M-10 6 C-11.38 8.76 -11.19 10.95 -11 14 C-10.34 14.66 -9.68 15.32 -9 16 C-9 12.7 -9 9.4 -9 6 C-9.33 6 -9.66 6 -10 6 Z M1 6 C0.32 8.86 0.32 8.86 0 12 C0.99 13.49 0.99 13.49 2 15 C3.33 13.89 3.33 13.89 3.19 11.06 C3.33 7.89 3.33 7.89 1 6 Z M-5 13 C-5.33 14.65 -5.66 16.3 -6 18 C-4.35 17.67 -2.7 17.34 -1 17 C-1.66 16.67 -2.32 16.34 -3 16 C-3 15.01 -3 14.02 -3 13 C-3.66 13 -4.32 13 -5 13 Z " fill="#F60503" transform="translate(1088,358)"/>
</svg>
